<?xml version="1.0" encoding="UTF-8"?>
<svg width="216px" height="104px" viewBox="0 0 216 104" version="1.1" xmlns="http://www.w3.org/2000/svg" xmlns:xlink="http://www.w3.org/1999/xlink">
    <title>vpn.kuy.io</title>
    <defs>
        <circle id="path-1" cx="29" cy="29" r="29"></circle>
    </defs>
    <g id="vpn.kuy.io" stroke="none" stroke-width="1" fill="none" fill-rule="evenodd">
        <circle id="Oval" fill="#FFFFFF" cx="45" cy="52" r="39"></circle>
        <g id="KUY.io-Logo-(circle)" transform="translate(16.000000, 23.000000)">
            <g id="Background-+-Logo-Geometry-Mask" transform="translate(0.000000, -0.000000)">
                <mask id="mask-2" fill="white">
                    <use xlink:href="#path-1"></use>
                </mask>
                <use id="Mask" fill="#FF3860" xlink:href="#path-1"></use>
                <circle id="Background" fill="#FF3860" mask="url(#mask-2)" cx="29" cy="29" r="29"></circle>
                <g id="Logo-Geometry" mask="url(#mask-2)">
                    <g transform="translate(8.530150, 7.500009)">
                        <rect id="Rectangle" fill-opacity="0.57" fill="#FFFFFF" x="0.0721393035" y="1.58706468" width="12.5522388" height="39.9651741"></rect>
                        <polygon id="Rectangle-Copy-4" fill-opacity="0.17" fill="#000000" points="26.8311135 0.432835821 42.778607 0.432835821 1.37064677 41.5522388 1.37064677 25.9280277"></polygon>
                        <polygon id="Rectangle-Copy" fill-opacity="0.81" fill="#FFFFFF" points="26.507165 1.11486276e-14 41.7686567 1.8581046e-15 8.28325188 33.4726368 1.51492537 26.7068911"></polygon>
                        <polygon id="Rectangle-Copy-3" fill-opacity="0.17" fill="#000000" points="24.8910399 42.4179104 44.6542289 42.4179104 0.908590822 1.00995025 0.649253731 15.6891252"></polygon>
                        <polygon id="Rectangle-Copy-2" fill="#FFFFFF" points="24.3098637 42.5621891 43.3557214 42.5621891 7.30081029 9.08955224 0.504975124 15.8316049"></polygon>
                        <polygon id="Triangle" fill="#FFFFFF" transform="translate(10.315920, 21.713930) rotate(-270.000000) translate(-10.315920, -21.713930) " points="10.3159204 11.6144279 30.1542289 31.8134328 -9.52238806 31.8134328"></polygon>
                    </g>
                </g>
            </g>
        </g>
        <g id="VPN" transform="translate(89.000000, 35.000000)" fill="#5D6D89" fill-rule="nonzero">
            <polygon id="Path" points="35 1 24.6857542 1 17.5 18.5892617 10.3142458 1 0 1 17.4022346 37 17.5977654 37"></polygon>
            <path d="M54.464837,1 L39,1 L39,37 L48.1252144,37 L48.1252144,25.5877551 L54.464837,25.5877551 C61.0445969,25.5877551 67,21.1306122 67,13.2938776 C67,5.45714286 61.0445969,1 54.464837,1 Z M53.5523156,8.98367347 C56.0017153,8.98367347 57.7307033,10.5510204 57.7307033,13.2938776 C57.7307033,16.1836735 56.0017153,17.6040816 53.5523156,17.6040816 L48.1252144,17.6040816 L48.1252144,8.98367347 L53.5523156,8.98367347 Z" id="Shape"></path>
            <polygon id="Path" points="101 0.632063075 91.6403941 0.632063075 91.6403941 17.5032852 71.1970443 0 71 0 71 36.3679369 80.3596059 36.3679369 80.3596059 19.4967148 100.802956 37 101 37"></polygon>
        </g>
    </g>
</svg>